<?xml version="1.0" encoding="utf-8"?>
<!-- Generator: Adobe Illustrator 25.0.0, SVG Export Plug-In . SVG Version: 6.00 Build 0)  -->
<svg version="1.1" id="Capa_1" xmlns="http://www.w3.org/2000/svg" xmlns:xlink="http://www.w3.org/1999/xlink" x="0px" y="0px"
	 viewBox="0 0 340.2 340.2" style="enable-background:new 0 0 340.2 340.2;" xml:space="preserve">
<g>
	<path d="M170.3,229c-19.4,0-38.8,0-58.2,0c-2.5,0-3.9-0.4-4.8-3.1c-8.2-25.4-16.6-50.8-25-76.2c-2.3-7.1-4.8-14.2-6.8-21.4
		c-0.4-1.3,0.5-3.8,1.6-4.5c23.8-16.3,47.7-32.5,71.5-48.7c5.8-4,11.7-7.9,17.4-12c2.1-1.5,3.5-1.9,6.1-0.2
		c29.9,19.5,60,38.8,90.1,58c3.4,2.2,3.8,4,2.6,7.6c-10.4,32.1-20.6,64.2-30.6,96.4c-1.1,3.5-3,4.1-6.2,4.1
		C208.8,228.9,189.5,228.9,170.3,229C170.3,228.9,170.3,229,170.3,229z"/>
	<path d="M70.7,306.8c1.3-2.6,2.5-5.1,3.9-7.5c10.5-19,21-38,31.4-57.1c1.4-2.5,2.9-3.5,5.9-3.5c39.3,0,78.6-0.1,117.9-0.1
		c1.5,0,3.9,0.9,4.5,2c12.2,21.3,24.1,42.7,36.1,64.2c0.1,0.3,0,0.6,0.1,1.4c-11.1,3.6-22.2,7.4-33.5,10.9
		c-20.3,6.4-40.6,12.9-60.9,19.1c-3,0.9-6.7,1-9.6,0.1c-30.9-9.2-61.8-18.6-92.7-28C72.9,307.9,72.1,307.4,70.7,306.8z"/>
	<path d="M61.8,300.6c-8.2-10.8-15.9-20.9-23.7-31c-12-15.6-24-31.2-35.8-46.9c-1-1.4-1.8-3.2-1.8-4.9c-0.2-32.4-0.4-64.7-0.5-97.1
		c0-0.5,0.2-0.9,0.5-2.2c5.8,0.8,11.6,1.4,17.4,2.3c14.5,2.2,29.1,4.3,43.5,6.8c1.6,0.3,3.8,2,4.3,3.5c10.9,33,21.6,66,32.3,99
		c0.5,1.5,0.6,3.6-0.1,4.9c-11.4,21.1-22.9,42.1-34.4,63.2C63.2,298.9,62.8,299.4,61.8,300.6z"/>
	<path d="M340.1,117c0,13.2,0,25.8,0,38.3c0,19.8,0.1,39.6,0.1,59.4c0,2-0.5,4.3-1.7,5.9c-19.1,25.2-38.4,50.3-57.6,75.5
		c-0.4,0.5-0.8,1-1.6,2.1c-3.6-6.2-6.9-11.8-10.1-17.5c-8.5-15.1-17-30.1-25.4-45.3c-0.8-1.5-1.1-3.8-0.6-5.4
		c10.6-33.5,21.4-67,32.2-100.4c0.5-1.4,2-3.3,3.3-3.5C298.8,123,318.9,120.1,340.1,117z"/>
	<path d="M164.4-3.3c0,18.7,0.1,36.3-0.1,53.9c0,1.4-1.6,3.2-3,4.1c-17,11.7-34.1,23.2-51.2,34.8c-10.7,7.2-21.6,14.2-31.9,21.9
		c-6.7,5.1-13.2,7.2-21.9,5.6c-16.9-3.1-34-5.3-52.2-8c1.9-2.9,3.3-5.4,5-7.7C26.8,78,44.3,54.5,62.1,31.2c1.5-1.9,3.9-3.6,6.3-4.4
		c29.6-9.6,59.3-19.1,88.9-28.5C159.3-2.3,161.4-2.6,164.4-3.3z"/>
	<path d="M334.9,107.3c-10.5,1.6-20.7,3.3-30.9,4.8c-8.7,1.3-17.4,2.7-26.2,3.7c-2.4,0.3-5.5-0.3-7.5-1.6
		c-31-19.8-61.8-39.8-92.6-59.8c-1.4-0.9-2.9-3-2.9-4.5c-0.2-17-0.1-34-0.1-51c0-0.5,0.3-0.9,0.6-2.1c5.8,1.8,11.6,3.6,17.3,5.3
		c25.8,7.9,51.7,15.8,77.5,23.8c2.3,0.7,4.7,2.1,6.1,3.9c19.1,24.6,37.9,49.4,56.8,74.2C333.7,104.8,334.1,105.9,334.9,107.3z"/>
</g>
</svg>
